<svg width="350" height="350" viewBox="0 0 343 343" fill="none" xmlns="http://www.w3.org/2000/svg">
<path d="M87.0273 263H112.418V189.758L166.007 85.0215H137.442L99.7227 164.001L62.0029 85.0215H33.4385L87.0273 189.758V263ZM183.219 219.787L165.519 240.051C184.48 256.327 207.145 264.465 233.512 264.465C274.283 263.977 295.117 246.724 296.012 212.707C296.012 200.093 292.065 189.025 284.171 179.504C276.196 169.82 263.867 163.838 247.184 161.56C238.72 160.502 232.047 159.566 227.164 158.752C218.375 157.124 211.987 154.195 207.999 149.963C204.011 145.812 202.018 141.174 202.018 136.047C202.18 127.502 205.151 121.073 210.929 116.76C216.463 112.609 223.38 110.534 231.681 110.534C247.713 110.86 262.402 115.417 275.748 124.206L290.763 101.989C274.405 90.1891 255.159 84.0449 233.023 83.5566C214.632 83.7194 200.431 88.5208 190.421 97.9609C180.086 107.482 174.918 120.015 174.918 135.559C174.918 148.498 179.028 159.484 187.247 168.518C195.222 177.307 206.86 182.963 222.159 185.485C230.704 186.706 238.557 187.805 245.719 188.781C261.344 191.467 269.075 199.442 268.912 212.707C268.587 228.902 256.868 237.162 233.756 237.487C214.225 237.325 197.379 231.424 183.219 219.787Z" fill="url(#paint0_linear)"/>
<path d="M87.0273 263H85.0273V265H87.0273V263ZM112.418 263V265H114.418V263H112.418ZM112.418 189.758L110.637 188.847L110.418 189.276V189.758H112.418ZM166.007 85.0215L167.787 85.9325L169.277 83.0215H166.007V85.0215ZM137.442 85.0215V83.0215H136.181L135.638 84.1596L137.442 85.0215ZM99.7227 164.001L97.9179 164.863L99.7227 168.642L101.527 164.863L99.7227 164.001ZM62.0029 85.0215L63.8077 84.1596L63.2641 83.0215H62.0029V85.0215ZM33.4385 85.0215V83.0215H30.1686L31.658 85.9325L33.4385 85.0215ZM87.0273 189.758H89.0273V189.276L88.8078 188.847L87.0273 189.758ZM87.0273 265H112.418V261H87.0273V265ZM114.418 263V189.758H110.418V263H114.418ZM114.198 190.669L167.787 85.9325L164.226 84.1105L110.637 188.847L114.198 190.669ZM166.007 83.0215H137.442V87.0215H166.007V83.0215ZM135.638 84.1596L97.9179 163.139L101.527 164.863L139.247 85.8834L135.638 84.1596ZM101.527 163.139L63.8077 84.1596L60.1982 85.8834L97.9179 164.863L101.527 163.139ZM62.0029 83.0215H33.4385V87.0215H62.0029V83.0215ZM31.658 85.9325L85.2469 190.669L88.8078 188.847L35.219 84.1105L31.658 85.9325ZM85.0273 189.758V263H89.0273V189.758H85.0273ZM183.219 219.787L184.489 218.242L182.989 217.01L181.712 218.471L183.219 219.787ZM165.519 240.051L164.012 238.735L162.685 240.254L164.216 241.568L165.519 240.051ZM233.512 264.465V266.465H233.524L233.536 266.465L233.512 264.465ZM296.012 212.707L298.011 212.76L298.012 212.733V212.707H296.012ZM284.171 179.504L282.627 180.775L282.631 180.78L284.171 179.504ZM247.184 161.56L247.454 159.578L247.443 159.576L247.432 159.575L247.184 161.56ZM227.164 158.752L226.8 160.719L226.818 160.722L226.835 160.725L227.164 158.752ZM207.999 149.963L209.455 148.591L209.448 148.584L209.441 148.577L207.999 149.963ZM202.018 136.047L200.018 136.009L200.018 136.028V136.047H202.018ZM210.929 116.76L212.125 118.362L212.129 118.36L210.929 116.76ZM231.681 110.534L231.721 108.535L231.701 108.534H231.681V110.534ZM275.748 124.206L274.648 125.876L276.299 126.963L277.405 125.326L275.748 124.206ZM290.763 101.989L292.42 103.109L293.506 101.502L291.933 100.367L290.763 101.989ZM233.023 83.5566L233.068 81.5571L233.037 81.5564L233.006 81.5567L233.023 83.5566ZM190.421 97.9609L191.776 99.4319L191.785 99.424L191.793 99.4159L190.421 97.9609ZM187.247 168.518L188.728 167.174L188.726 167.172L187.247 168.518ZM222.159 185.485L221.834 187.459L221.855 187.462L221.876 187.465L222.159 185.485ZM245.719 188.781L246.058 186.81L246.023 186.804L245.989 186.8L245.719 188.781ZM268.912 212.707L270.912 212.747L270.912 212.739L270.912 212.732L268.912 212.707ZM233.756 237.487L233.739 239.487L233.762 239.487L233.784 239.487L233.756 237.487ZM181.712 218.471L164.012 238.735L167.025 241.367L184.725 221.103L181.712 218.471ZM164.216 241.568C183.561 258.174 206.695 266.465 233.512 266.465V262.465C207.594 262.465 185.399 254.48 166.821 238.533L164.216 241.568ZM233.536 266.465C254.157 266.218 270.082 261.733 280.991 252.7C291.963 243.614 297.552 230.185 298.011 212.76L294.012 212.654C293.576 229.246 288.301 241.452 278.44 249.619C268.515 257.838 253.638 262.224 233.488 262.465L233.536 266.465ZM298.012 212.707C298.012 199.637 293.908 188.115 285.711 178.227L282.631 180.78C290.221 189.935 294.012 200.549 294.012 212.707H298.012ZM285.715 178.232C277.323 168.043 264.462 161.901 247.454 159.578L246.913 163.541C263.271 165.775 275.068 171.597 282.627 180.775L285.715 178.232ZM247.432 159.575C238.979 158.518 232.336 157.586 227.493 156.779L226.835 160.725C231.757 161.545 238.461 162.485 246.936 163.544L247.432 159.575ZM227.528 156.785C218.946 155.196 213.032 152.388 209.455 148.591L206.543 151.334C210.941 156.002 217.804 159.053 226.8 160.719L227.528 156.785ZM209.441 148.577C205.764 144.75 204.018 140.592 204.018 136.047H200.018C200.018 141.755 202.259 146.875 206.557 151.349L209.441 148.577ZM204.017 136.085C204.171 128.029 206.937 122.236 212.125 118.362L209.732 115.157C203.365 119.91 200.19 126.975 200.018 136.009L204.017 136.085ZM212.129 118.36C217.251 114.518 223.724 112.534 231.681 112.534V108.534C223.036 108.534 215.674 110.701 209.729 115.16L212.129 118.36ZM231.64 112.534C247.296 112.852 261.618 117.296 274.648 125.876L276.848 122.536C263.186 113.538 248.129 108.868 231.721 108.535L231.64 112.534ZM277.405 125.326L292.42 103.109L289.106 100.869L274.091 123.086L277.405 125.326ZM291.933 100.367C275.215 88.3071 255.566 82.0534 233.068 81.5571L232.979 85.5562C254.751 86.0364 273.596 92.0712 289.593 103.611L291.933 100.367ZM233.006 81.5567C214.283 81.7224 199.534 86.6171 189.049 96.5059L191.793 99.4159C201.327 90.4246 214.98 85.7164 233.041 85.5566L233.006 81.5567ZM189.066 96.49C178.273 106.433 172.918 119.522 172.918 135.559H176.918C176.918 120.508 181.898 108.532 191.776 99.4319L189.066 96.49ZM172.918 135.559C172.918 148.963 177.192 160.439 185.768 169.864L188.726 167.172C180.863 158.53 176.918 148.033 176.918 135.559H172.918ZM185.766 169.862C194.126 179.075 206.227 184.885 221.834 187.459L222.485 183.512C207.493 181.04 196.318 175.538 188.728 167.174L185.766 169.862ZM221.876 187.465C230.425 188.686 238.282 189.786 245.449 190.763L245.989 186.8C238.832 185.824 230.984 184.726 222.442 183.505L221.876 187.465ZM245.38 190.752C252.947 192.053 258.331 194.591 261.8 198.169C265.228 201.705 266.989 206.468 266.912 212.682L270.912 212.732C270.998 205.681 268.975 199.824 264.672 195.385C260.409 190.987 254.115 188.195 246.058 186.81L245.38 190.752ZM266.913 212.667C266.761 220.223 263.993 225.701 258.727 229.413C253.342 233.209 245.106 235.327 233.728 235.488L233.784 239.487C245.518 239.322 254.697 237.148 261.031 232.683C267.483 228.135 270.738 221.386 270.912 212.747L266.913 212.667ZM233.773 235.487C214.666 235.328 198.271 229.569 184.489 218.242L181.949 221.332C196.487 233.28 213.783 239.321 233.739 239.487L233.773 235.487Z" fill="black"/>
<defs>
<linearGradient id="paint0_linear" x1="37" y1="49" x2="329.909" y2="291.07" gradientUnits="userSpaceOnUse">
<stop stop-color="#2980b9"/>
<stop offset="1" stop-color="#2980b9"/>
</linearGradient>
</defs>
</svg>
